<svg width="743" height="890" viewBox="0 0 743 890" fill="none" xmlns="http://www.w3.org/2000/svg">
<path d="M52 124C130.965 240.254 251.986 307.22 350.94 403.7C413.757 464.946 475.19 526.717 545.661 579.002C589.214 611.316 641.938 641.459 664.311 693.198C676.995 722.529 690.143 761.704 690.143 794.211" stroke="#0E0C0C" stroke-width="42" stroke-linecap="round"/>
<path d="M152.933 813.553C145.135 812.578 188.666 745.777 192.127 740.154C242.109 658.933 286.578 577.821 326.098 491.096C347.405 444.339 362.501 395.737 388.451 351.068C418.383 299.546 448.769 246.813 487.148 201.063C521.995 159.524 559.052 120.999 589.051 76" stroke="#0E0C0C" stroke-width="42" stroke-linecap="round"/>
</svg>
